<svg xmlns="http://www.w3.org/2000/svg" xmlns:xlink="http://www.w3.org/1999/xlink" version="1.1" x="0px" y="0px" viewBox="0 0 32 40" enable-background="new 0 0 32 32" xml:space="preserve"><rect x="7" y="3" width="2" height="2"/><rect x="7" y="11" width="2" height="2"/><rect x="7" y="7" width="2" height="2"/><rect x="7" y="15" width="2" height="2"/><rect x="7" y="19" width="2" height="2"/><rect x="7" y="23" width="2" height="2"/><rect x="7" y="27" width="2" height="2"/><rect x="23" y="27" width="2" height="2"/><rect x="23" y="23" width="2" height="2"/><rect x="23" y="19" width="2" height="2"/><rect x="23" y="15" width="2" height="2"/><rect x="23" y="11" width="2" height="2"/><rect x="23" y="7" width="2" height="2"/><rect x="23" y="3" width="2" height="2"/><rect x="11" y="17" width="10" height="12"/><rect x="11" y="3" width="10" height="12"/><text x="0" y="47" fill="#000000" font-size="5px" font-weight="bold" font-family="'Helvetica Neue', Helvetica, Arial-Unicode, Arial, Sans-serif">Created by Icon Lauk</text><text x="0" y="52" fill="#000000" font-size="5px" font-weight="bold" font-family="'Helvetica Neue', Helvetica, Arial-Unicode, Arial, Sans-serif">from the Noun Project</text></svg>